<svg xmlns="http://www.w3.org/2000/svg" width="195.18" height="35" viewBox="0 0 195.18 35"><rect class="svg__rect" x="0" y="0" width="64.89" height="35" fill="#31C4F3"/><rect class="svg__rect" x="62.89" y="0" width="132.29000000000002" height="35" fill="#389AD5"/><path class="svg__text" d="M14.08 19.16L14.08 19.16L14.08 13.47L15.56 13.47L15.56 19.18Q15.56 20.03 15.99 20.48Q16.43 20.93 17.27 20.93L17.27 20.93Q18.98 20.93 18.98 19.13L18.98 19.13L18.98 13.47L20.46 13.47L20.46 19.17Q20.46 20.53 19.59 21.32Q18.72 22.12 17.27 22.12L17.27 22.12Q15.81 22.12 14.94 21.33Q14.08 20.55 14.08 19.16ZM24.59 19.42L24.59 19.42L26.08 19.42Q26.08 20.15 26.56 20.55Q27.04 20.95 27.93 20.95L27.93 20.95Q28.71 20.95 29.10 20.63Q29.49 20.32 29.49 19.80L29.49 19.80Q29.49 19.24 29.09 18.94Q28.70 18.63 27.66 18.32Q26.63 18.01 26.02 17.63L26.02 17.63Q24.86 16.90 24.86 15.72L24.86 15.72Q24.86 14.69 25.70 14.02Q26.54 13.35 27.88 13.35L27.88 13.35Q28.77 13.35 29.47 13.68Q30.17 14.01 30.56 14.61Q30.96 15.22 30.96 15.96L30.96 15.96L29.49 15.96Q29.49 15.29 29.07 14.91Q28.65 14.54 27.87 14.54L27.87 14.54Q27.14 14.54 26.74 14.85Q26.34 15.16 26.34 15.71L26.34 15.71Q26.34 16.18 26.77 16.50Q27.21 16.81 28.20 17.10Q29.20 17.40 29.80 17.78Q30.41 18.16 30.69 18.65Q30.97 19.13 30.97 19.79L30.97 19.79Q30.97 20.86 30.15 21.49Q29.33 22.12 27.93 22.12L27.93 22.12Q27.01 22.12 26.23 21.77Q25.46 21.43 25.02 20.83Q24.59 20.22 24.59 19.42ZM40.84 22L35.26 22L35.26 13.47L40.80 13.47L40.80 14.66L36.74 14.66L36.74 17.02L40.24 17.02L40.24 18.19L36.74 18.19L36.74 20.82L40.84 20.82L40.84 22ZM44.60 19.42L44.60 19.42L46.08 19.42Q46.08 20.15 46.56 20.55Q47.04 20.95 47.94 20.95L47.94 20.95Q48.71 20.95 49.10 20.63Q49.49 20.32 49.49 19.80L49.49 19.80Q49.49 19.24 49.10 18.94Q48.70 18.63 47.67 18.32Q46.64 18.01 46.03 17.63L46.03 17.63Q44.86 16.90 44.86 15.72L44.86 15.72Q44.86 14.69 45.70 14.02Q46.54 13.35 47.89 13.35L47.89 13.35Q48.78 13.35 49.47 13.68Q50.17 14.01 50.57 14.61Q50.97 15.22 50.97 15.96L50.97 15.96L49.49 15.96Q49.49 15.29 49.07 14.91Q48.65 14.54 47.87 14.54L47.87 14.54Q47.15 14.54 46.75 14.85Q46.34 15.16 46.34 15.71L46.34 15.71Q46.34 16.18 46.78 16.50Q47.21 16.81 48.21 17.10Q49.20 17.40 49.81 17.78Q50.41 18.16 50.69 18.65Q50.97 19.13 50.97 19.79L50.97 19.79Q50.97 20.86 50.16 21.49Q49.34 22.12 47.94 22.12L47.94 22.12Q47.01 22.12 46.24 21.77Q45.46 21.43 45.03 20.83Q44.60 20.22 44.60 19.42Z" fill="#FFFFFF"/><path class="svg__text" d="M81.62 22L77.08 22L77.08 13.60L81.38 13.60Q82.98 13.60 83.82 14.19Q84.67 14.79 84.67 15.79L84.67 15.79Q84.67 16.39 84.37 16.87Q84.07 17.34 83.53 17.62L83.53 17.62Q84.26 17.87 84.66 18.41Q85.07 18.94 85.07 19.70L85.07 19.70Q85.07 20.80 84.18 21.40Q83.29 22 81.62 22L81.62 22ZM79.43 18.58L79.43 20.28L81.43 20.28Q82.67 20.28 82.67 19.43L82.67 19.43Q82.67 18.58 81.43 18.58L81.43 18.58L79.43 18.58ZM79.43 15.31L79.43 16.94L81.06 16.94Q82.26 16.94 82.26 16.12L82.26 16.12Q82.26 15.31 81.06 15.31L81.06 15.31L79.43 15.31ZM89.36 17.80L89.36 17.80Q89.36 16.55 89.96 15.55Q90.57 14.56 91.63 14.00Q92.69 13.43 94.02 13.43L94.02 13.43Q95.35 13.43 96.42 14.00Q97.48 14.56 98.09 15.55Q98.69 16.55 98.69 17.80L98.69 17.80Q98.69 19.05 98.09 20.04Q97.48 21.04 96.42 21.60Q95.36 22.17 94.02 22.17L94.02 22.17Q92.69 22.17 91.63 21.60Q90.57 21.04 89.96 20.04Q89.36 19.05 89.36 17.80ZM91.76 17.80L91.76 17.80Q91.76 18.51 92.06 19.05Q92.36 19.60 92.87 19.90Q93.39 20.20 94.02 20.20L94.02 20.20Q94.66 20.20 95.18 19.90Q95.69 19.60 95.99 19.05Q96.29 18.51 96.29 17.80L96.29 17.80Q96.29 17.09 95.99 16.54Q95.69 16 95.18 15.70Q94.66 15.40 94.02 15.40L94.02 15.40Q93.38 15.40 92.87 15.70Q92.36 16 92.06 16.54Q91.76 17.09 91.76 17.80ZM102.99 17.80L102.99 17.80Q102.99 16.55 103.60 15.55Q104.20 14.56 105.26 14.00Q106.33 13.43 107.66 13.43L107.66 13.43Q108.99 13.43 110.05 14.00Q111.11 14.56 111.72 15.55Q112.33 16.55 112.33 17.80L112.33 17.80Q112.33 19.05 111.72 20.04Q111.11 21.04 110.05 21.60Q108.99 22.17 107.66 22.17L107.66 22.17Q106.33 22.17 105.26 21.60Q104.20 21.04 103.60 20.04Q102.99 19.05 102.99 17.80ZM105.39 17.80L105.39 17.80Q105.39 18.51 105.69 19.05Q105.99 19.60 106.51 19.90Q107.03 20.20 107.66 20.20L107.66 20.20Q108.30 20.20 108.81 19.90Q109.33 19.60 109.63 19.05Q109.93 18.51 109.93 17.80L109.93 17.80Q109.93 17.09 109.63 16.54Q109.33 16 108.81 15.70Q108.30 15.40 107.66 15.40L107.66 15.40Q107.02 15.40 106.51 15.70Q105.99 16 105.69 16.54Q105.39 17.09 105.39 17.80ZM118.85 15.48L116.27 15.48L116.27 13.60L123.79 13.60L123.79 15.48L121.22 15.48L121.22 22L118.85 22L118.85 15.48ZM127.57 21.24L127.57 21.24L128.35 19.49Q128.92 19.86 129.66 20.09Q130.40 20.32 131.12 20.32L131.12 20.32Q132.49 20.32 132.50 19.64L132.50 19.64Q132.50 19.28 132.11 19.11Q131.72 18.93 130.85 18.74L130.85 18.74Q129.90 18.53 129.26 18.30Q128.63 18.06 128.17 17.55Q127.72 17.03 127.72 16.16L127.72 16.16Q127.72 15.39 128.14 14.77Q128.56 14.15 129.39 13.79Q130.23 13.43 131.44 13.43L131.44 13.43Q132.26 13.43 133.07 13.62Q133.87 13.80 134.49 14.17L134.49 14.17L133.76 15.93Q132.55 15.28 131.42 15.28L131.42 15.28Q130.71 15.28 130.39 15.49Q130.07 15.70 130.07 16.04L130.07 16.04Q130.07 16.37 130.45 16.54Q130.84 16.71 131.69 16.89L131.69 16.89Q132.65 17.10 133.28 17.33Q133.91 17.56 134.37 18.07Q134.83 18.58 134.83 19.46L134.83 19.46Q134.83 20.21 134.41 20.83Q134.00 21.44 133.16 21.80Q132.31 22.17 131.11 22.17L131.11 22.17Q130.09 22.17 129.13 21.92Q128.17 21.67 127.57 21.24ZM141.20 15.48L138.62 15.48L138.62 13.60L146.14 13.60L146.14 15.48L143.58 15.48L143.58 22L141.20 22L141.20 15.48ZM152.89 22L150.51 22L150.51 13.60L154.36 13.60Q155.50 13.60 156.34 13.98Q157.18 14.35 157.63 15.06Q158.09 15.76 158.09 16.71L158.09 16.71Q158.09 17.62 157.66 18.30Q157.23 18.98 156.44 19.36L156.44 19.36L158.25 22L155.71 22L154.19 19.77L152.89 19.77L152.89 22ZM152.89 15.47L152.89 17.93L154.21 17.93Q154.94 17.93 155.32 17.61Q155.69 17.29 155.69 16.71L155.69 16.71Q155.69 16.12 155.32 15.79Q154.94 15.47 154.21 15.47L154.21 15.47L152.89 15.47ZM164.29 22L161.87 22L165.58 13.60L167.92 13.60L171.64 22L169.17 22L168.51 20.37L164.96 20.37L164.29 22ZM166.73 15.93L165.65 18.61L167.81 18.61L166.73 15.93ZM178.17 22L175.79 22L175.79 13.60L179.63 13.60Q180.77 13.60 181.61 13.98Q182.45 14.35 182.91 15.06Q183.37 15.76 183.37 16.71L183.37 16.71Q183.37 17.66 182.91 18.35Q182.45 19.05 181.61 19.42Q180.77 19.80 179.63 19.80L179.63 19.80L178.17 19.80L178.17 22ZM178.17 15.47L178.17 17.93L179.49 17.93Q180.22 17.93 180.59 17.61Q180.96 17.29 180.96 16.71L180.96 16.71Q180.96 16.12 180.59 15.80Q180.22 15.47 179.49 15.47L179.49 15.47L178.17 15.47Z" fill="#FFFFFF" x="75.89"/></svg>