<svg xmlns="http://www.w3.org/2000/svg" width="146.89000000000001" height="35" viewBox="0 0 146.89000000000001 35"><rect class="svg__rect" x="0" y="0" width="64.89" height="35" fill="#31C4F3"/><rect class="svg__rect" x="62.89" y="0" width="84.00000000000001" height="35" fill="#389AD5"/><path class="svg__text" d="M14.08 19.16L14.08 19.16L14.08 13.47L15.56 13.47L15.56 19.18Q15.56 20.03 15.99 20.48Q16.43 20.93 17.27 20.93L17.27 20.93Q18.98 20.93 18.98 19.13L18.98 19.13L18.98 13.47L20.46 13.47L20.46 19.17Q20.46 20.53 19.59 21.32Q18.72 22.12 17.27 22.12L17.27 22.12Q15.81 22.12 14.94 21.33Q14.08 20.55 14.08 19.16ZM24.59 19.42L24.59 19.42L26.08 19.42Q26.08 20.15 26.56 20.55Q27.04 20.95 27.93 20.95L27.93 20.95Q28.71 20.95 29.10 20.63Q29.49 20.32 29.49 19.80L29.49 19.80Q29.49 19.24 29.09 18.94Q28.70 18.63 27.66 18.32Q26.63 18.01 26.02 17.63L26.02 17.63Q24.86 16.90 24.86 15.72L24.86 15.72Q24.86 14.69 25.70 14.02Q26.54 13.35 27.88 13.35L27.88 13.35Q28.77 13.35 29.47 13.68Q30.17 14.01 30.56 14.61Q30.96 15.22 30.96 15.96L30.96 15.96L29.49 15.96Q29.49 15.29 29.07 14.91Q28.65 14.54 27.87 14.54L27.87 14.54Q27.14 14.54 26.74 14.85Q26.34 15.16 26.34 15.71L26.34 15.71Q26.34 16.18 26.77 16.50Q27.21 16.81 28.20 17.10Q29.20 17.40 29.80 17.78Q30.41 18.16 30.69 18.65Q30.97 19.13 30.97 19.79L30.97 19.79Q30.97 20.86 30.15 21.49Q29.33 22.12 27.93 22.12L27.93 22.12Q27.01 22.12 26.23 21.77Q25.46 21.43 25.02 20.83Q24.59 20.22 24.59 19.42ZM40.84 22L35.26 22L35.26 13.47L40.80 13.47L40.80 14.66L36.74 14.66L36.74 17.02L40.24 17.02L40.24 18.19L36.74 18.19L36.74 20.82L40.84 20.82L40.84 22ZM44.60 19.42L44.60 19.42L46.08 19.42Q46.08 20.15 46.56 20.55Q47.04 20.95 47.94 20.95L47.94 20.95Q48.71 20.95 49.10 20.63Q49.49 20.32 49.49 19.80L49.49 19.80Q49.49 19.24 49.10 18.94Q48.70 18.63 47.67 18.32Q46.64 18.01 46.03 17.63L46.03 17.63Q44.86 16.90 44.86 15.72L44.86 15.72Q44.86 14.69 45.70 14.02Q46.54 13.35 47.89 13.35L47.89 13.35Q48.78 13.35 49.47 13.68Q50.17 14.01 50.57 14.61Q50.97 15.22 50.97 15.96L50.97 15.96L49.49 15.96Q49.49 15.29 49.07 14.91Q48.65 14.54 47.87 14.54L47.87 14.54Q47.15 14.54 46.75 14.85Q46.34 15.16 46.34 15.71L46.34 15.71Q46.34 16.18 46.78 16.50Q47.21 16.81 48.21 17.10Q49.20 17.40 49.81 17.78Q50.41 18.16 50.69 18.65Q50.97 19.13 50.97 19.79L50.97 19.79Q50.97 20.86 50.16 21.49Q49.34 22.12 47.94 22.12L47.94 22.12Q47.01 22.12 46.24 21.77Q45.46 21.43 45.03 20.83Q44.60 20.22 44.60 19.42Z" fill="#FFFFFF"/><path class="svg__text" d="M79.28 22L77.08 22L77.08 13.60L79.03 13.60L81.99 18.45L84.87 13.60L86.82 13.60L86.85 22L84.67 22L84.64 17.55L82.48 21.17L81.43 21.17L79.28 17.67L79.28 22ZM94.13 18.95L90.93 13.60L93.44 13.60L95.43 16.94L97.42 13.60L99.72 13.60L96.51 18.99L96.51 22L94.13 22L94.13 18.95ZM103.22 21.24L103.22 21.24L104.00 19.49Q104.56 19.86 105.31 20.09Q106.05 20.32 106.77 20.32L106.77 20.32Q108.14 20.32 108.14 19.64L108.14 19.64Q108.14 19.28 107.75 19.11Q107.36 18.93 106.50 18.74L106.50 18.74Q105.55 18.53 104.91 18.30Q104.28 18.06 103.82 17.55Q103.37 17.03 103.37 16.16L103.37 16.16Q103.37 15.39 103.79 14.77Q104.21 14.15 105.04 13.79Q105.88 13.43 107.08 13.43L107.08 13.43Q107.91 13.43 108.72 13.62Q109.52 13.80 110.14 14.17L110.14 14.17L109.40 15.93Q108.20 15.28 107.07 15.28L107.07 15.28Q106.36 15.28 106.04 15.49Q105.72 15.70 105.72 16.04L105.72 16.04Q105.72 16.37 106.10 16.54Q106.49 16.71 107.34 16.89L107.34 16.89Q108.30 17.10 108.93 17.33Q109.56 17.56 110.02 18.07Q110.48 18.58 110.48 19.46L110.48 19.46Q110.48 20.21 110.06 20.83Q109.64 21.44 108.80 21.80Q107.96 22.17 106.76 22.17L106.76 22.17Q105.74 22.17 104.78 21.92Q103.82 21.67 103.22 21.24ZM114.63 17.80L114.63 17.80Q114.63 16.55 115.23 15.55Q115.84 14.56 116.90 14.00Q117.96 13.43 119.29 13.43L119.29 13.43Q120.62 13.43 121.69 14.00Q122.75 14.56 123.36 15.55Q123.96 16.55 123.96 17.80L123.96 17.80Q123.96 19.22 123.19 20.30Q122.42 21.39 121.11 21.85L121.11 21.85Q121.35 22.12 121.58 22.23Q121.81 22.33 122.09 22.33L122.09 22.33Q122.80 22.33 123.37 21.75L123.37 21.75L124.40 22.97Q123.98 23.49 123.37 23.76Q122.76 24.03 122.04 24.03L122.04 24.03Q121.35 24.03 120.78 23.85Q120.22 23.67 119.65 23.25Q119.08 22.84 118.37 22.09L118.37 22.09Q117.28 21.91 116.43 21.31Q115.57 20.72 115.10 19.81Q114.63 18.89 114.63 17.80ZM117.03 17.80L117.03 17.80Q117.03 18.51 117.33 19.05Q117.63 19.60 118.15 19.90Q118.66 20.20 119.29 20.20L119.29 20.20Q119.93 20.20 120.45 19.90Q120.96 19.60 121.26 19.05Q121.56 18.51 121.56 17.80L121.56 17.80Q121.56 17.09 121.26 16.54Q120.96 16 120.45 15.70Q119.93 15.40 119.29 15.40L119.29 15.40Q118.66 15.40 118.14 15.70Q117.63 16 117.33 16.54Q117.03 17.09 117.03 17.80ZM135.08 22L128.69 22L128.69 13.60L131.07 13.60L131.07 20.11L135.08 20.11L135.08 22Z" fill="#FFFFFF" x="75.89"/></svg>