<svg xmlns="http://www.w3.org/2000/svg" width="189.45" height="35" viewBox="0 0 189.45 35"><rect class="svg__rect" x="0" y="0" width="64.89" height="35" fill="#31C4F3"/><rect class="svg__rect" x="62.89" y="0" width="126.55999999999999" height="35" fill="#389AD5"/><path class="svg__text" d="M14.08 19.16L14.08 19.16L14.08 13.47L15.56 13.47L15.56 19.18Q15.56 20.03 15.99 20.48Q16.43 20.93 17.27 20.93L17.27 20.93Q18.98 20.93 18.98 19.13L18.98 19.13L18.98 13.47L20.46 13.47L20.46 19.17Q20.46 20.53 19.59 21.32Q18.72 22.12 17.27 22.12L17.27 22.12Q15.81 22.12 14.94 21.33Q14.08 20.55 14.08 19.16ZM24.59 19.42L24.59 19.42L26.08 19.42Q26.08 20.15 26.56 20.55Q27.04 20.95 27.93 20.95L27.93 20.95Q28.71 20.95 29.10 20.63Q29.49 20.32 29.49 19.80L29.49 19.80Q29.49 19.24 29.09 18.94Q28.70 18.63 27.66 18.32Q26.63 18.01 26.02 17.63L26.02 17.63Q24.86 16.90 24.86 15.72L24.86 15.72Q24.86 14.69 25.70 14.02Q26.54 13.35 27.88 13.35L27.88 13.35Q28.77 13.35 29.47 13.68Q30.17 14.01 30.56 14.61Q30.96 15.22 30.96 15.96L30.96 15.96L29.49 15.96Q29.49 15.29 29.07 14.91Q28.65 14.54 27.87 14.54L27.87 14.54Q27.14 14.54 26.74 14.85Q26.34 15.16 26.34 15.71L26.34 15.71Q26.34 16.18 26.77 16.50Q27.21 16.81 28.20 17.10Q29.20 17.40 29.80 17.78Q30.41 18.16 30.69 18.65Q30.97 19.13 30.97 19.79L30.97 19.79Q30.97 20.86 30.15 21.49Q29.33 22.12 27.93 22.12L27.93 22.12Q27.01 22.12 26.23 21.77Q25.46 21.43 25.02 20.83Q24.59 20.22 24.59 19.42ZM40.84 22L35.26 22L35.26 13.47L40.80 13.47L40.80 14.66L36.74 14.66L36.74 17.02L40.24 17.02L40.24 18.19L36.74 18.19L36.74 20.82L40.84 20.82L40.84 22ZM44.60 19.42L44.60 19.42L46.08 19.42Q46.08 20.15 46.56 20.55Q47.04 20.95 47.94 20.95L47.94 20.95Q48.71 20.95 49.10 20.63Q49.49 20.32 49.49 19.80L49.49 19.80Q49.49 19.24 49.10 18.94Q48.70 18.63 47.67 18.32Q46.64 18.01 46.03 17.63L46.03 17.63Q44.86 16.90 44.86 15.72L44.86 15.72Q44.86 14.69 45.70 14.02Q46.54 13.35 47.89 13.35L47.89 13.35Q48.78 13.35 49.47 13.68Q50.17 14.01 50.57 14.61Q50.97 15.22 50.97 15.96L50.97 15.96L49.49 15.96Q49.49 15.29 49.07 14.91Q48.65 14.54 47.87 14.54L47.87 14.54Q47.15 14.54 46.75 14.85Q46.34 15.16 46.34 15.71L46.34 15.71Q46.34 16.18 46.78 16.50Q47.21 16.81 48.21 17.10Q49.20 17.40 49.81 17.78Q50.41 18.16 50.69 18.65Q50.97 19.13 50.97 19.79L50.97 19.79Q50.97 20.86 50.16 21.49Q49.34 22.12 47.94 22.12L47.94 22.12Q47.01 22.12 46.24 21.77Q45.46 21.43 45.03 20.83Q44.60 20.22 44.60 19.42Z" fill="#FFFFFF"/><path class="svg__text" d="M83.82 22L77.08 22L77.08 13.60L83.67 13.60L83.67 15.44L79.43 15.44L79.43 16.85L83.17 16.85L83.17 18.63L79.43 18.63L79.43 20.17L83.82 20.17L83.82 22ZM88.20 17.80L88.20 17.80Q88.20 16.54 88.80 15.54Q89.39 14.55 90.45 13.99Q91.50 13.43 92.82 13.43L92.82 13.43Q93.97 13.43 94.89 13.84Q95.82 14.25 96.43 15.02L96.43 15.02L94.92 16.39Q94.11 15.40 92.94 15.40L92.94 15.40Q92.25 15.40 91.72 15.70Q91.19 16 90.89 16.54Q90.60 17.09 90.60 17.80L90.60 17.80Q90.60 18.51 90.89 19.05Q91.19 19.60 91.72 19.90Q92.25 20.20 92.94 20.20L92.94 20.20Q94.11 20.20 94.92 19.22L94.92 19.22L96.43 20.58Q95.82 21.35 94.90 21.76Q93.97 22.17 92.82 22.17L92.82 22.17Q91.50 22.17 90.45 21.61Q89.39 21.05 88.80 20.05Q88.20 19.06 88.20 17.80ZM107.35 22L100.97 22L100.97 13.60L103.35 13.60L103.35 20.11L107.35 20.11L107.35 22ZM114.15 22L111.77 22L111.77 13.60L114.15 13.60L114.15 22ZM121.70 22L119.32 22L119.32 13.60L123.17 13.60Q124.30 13.60 125.15 13.98Q125.99 14.35 126.44 15.06Q126.90 15.76 126.90 16.71L126.90 16.71Q126.90 17.66 126.44 18.35Q125.99 19.05 125.15 19.42Q124.30 19.80 123.17 19.80L123.17 19.80L121.70 19.80L121.70 22ZM121.70 15.47L121.70 17.93L123.02 17.93Q123.75 17.93 124.13 17.61Q124.50 17.29 124.50 16.71L124.50 16.71Q124.50 16.12 124.13 15.80Q123.75 15.47 123.02 15.47L123.02 15.47L121.70 15.47ZM131.07 21.24L131.07 21.24L131.85 19.49Q132.41 19.86 133.15 20.09Q133.90 20.32 134.62 20.32L134.62 20.32Q135.98 20.32 135.99 19.64L135.99 19.64Q135.99 19.28 135.60 19.11Q135.21 18.93 134.34 18.74L134.34 18.74Q133.39 18.53 132.76 18.30Q132.12 18.06 131.67 17.55Q131.21 17.03 131.21 16.16L131.21 16.16Q131.21 15.39 131.63 14.77Q132.05 14.15 132.89 13.79Q133.72 13.43 134.93 13.43L134.93 13.43Q135.75 13.43 136.56 13.62Q137.36 13.80 137.98 14.17L137.98 14.17L137.25 15.93Q136.05 15.28 134.92 15.28L134.92 15.28Q134.21 15.28 133.88 15.49Q133.56 15.70 133.56 16.04L133.56 16.04Q133.56 16.37 133.95 16.54Q134.33 16.71 135.18 16.89L135.18 16.89Q136.14 17.10 136.77 17.33Q137.40 17.56 137.86 18.07Q138.33 18.58 138.33 19.46L138.33 19.46Q138.33 20.21 137.91 20.83Q137.49 21.44 136.65 21.80Q135.81 22.17 134.61 22.17L134.61 22.17Q133.59 22.17 132.62 21.92Q131.66 21.67 131.07 21.24ZM149.65 22L142.90 22L142.90 13.60L149.49 13.60L149.49 15.44L145.26 15.44L145.26 16.85L148.99 16.85L148.99 18.63L145.26 18.63L145.26 20.17L149.65 20.17L149.65 22ZM163.80 22L161.42 22L161.42 13.60L163.80 13.60L163.80 22ZM172.95 22L168.98 22L168.98 13.60L172.95 13.60Q174.33 13.60 175.40 14.12Q176.46 14.63 177.05 15.58Q177.64 16.53 177.64 17.80L177.64 17.80Q177.64 19.07 177.05 20.02Q176.46 20.97 175.40 21.48Q174.33 22 172.95 22L172.95 22ZM171.36 15.50L171.36 20.10L172.86 20.10Q173.93 20.10 174.59 19.49Q175.24 18.88 175.24 17.80L175.24 17.80Q175.24 16.72 174.59 16.11Q173.93 15.50 172.86 15.50L172.86 15.50L171.36 15.50Z" fill="#FFFFFF" x="75.89"/></svg>